<svg width="54" height="54" viewBox="0 0 54 54" fill="none" xmlns="http://www.w3.org/2000/svg">
<path d="M4.5 32.625C4.5 33.9546 4.76189 35.2712 5.27072 36.4996C5.77955 37.7281 6.52535 38.8442 7.46554 39.7844C9.36435 41.6832 11.9397 42.75 14.625 42.75H41.625C43.6184 42.7536 45.539 42.001 46.9994 40.6442C48.4598 39.2873 49.3512 37.4272 49.494 35.4389C49.6367 33.4506 49.0201 31.4821 47.7685 29.9306C46.5169 28.379 44.7235 27.3599 42.75 27.0787C42.772 23.2509 41.3992 19.5462 38.8883 16.6569C36.3774 13.7677 32.9002 11.8918 29.1067 11.3798C25.3133 10.8679 21.4632 11.7549 18.2762 13.8752C15.0892 15.9955 12.7835 19.2038 11.79 22.9005C9.68614 23.5141 7.83817 24.7938 6.52365 26.5473C5.20913 28.3008 4.49903 30.4335 4.5 32.625Z" stroke="#DCCE06" stroke-width="2.5" stroke-linejoin="round"/>
</svg>
