<svg width="166" height="43" viewBox="0 0 166 43" fill="none" xmlns="http://www.w3.org/2000/svg">
<path d="M18.4971 3.61894e-06H0V0.900976C0.00160026 3.84705 1.17222 6.6721 3.25485 8.75586C5.33747 10.8396 8.16188 12.0118 11.108 12.015H17.7594C20.1971 12.015 22.5349 12.9833 24.2585 14.707C25.9822 16.4307 26.9506 18.7685 26.9506 21.2061C26.9506 23.6437 25.9822 25.9815 24.2585 27.7052C22.5349 29.4289 20.1971 30.3972 17.7594 30.3972H11.2652V26.5273V25.7835C11.2942 24.4033 11.0471 23.0311 10.5385 21.7476C10.0299 20.4641 9.26998 19.2952 8.30339 18.3095C7.3368 17.3237 6.183 16.541 4.90975 16.0073C3.6365 15.4737 2.26945 15.1997 0.888878 15.2016H0V31.9875C0.00306755 34.7368 1.09077 37.3737 3.02682 39.3256C4.96288 41.2776 7.59091 42.3867 10.34 42.4122H18.4971C22.2116 42.4095 25.8603 41.4312 29.0778 39.5751C32.2954 37.7191 34.969 35.0505 36.831 31.8364C36.8907 31.7631 36.9396 31.6817 36.9761 31.5945C38.7929 28.3687 39.733 24.7233 39.7028 21.0212C39.6726 17.3192 38.6732 13.6896 36.8041 10.4939C34.935 7.29812 32.2614 4.64775 29.0494 2.80663C25.8375 0.965496 22.1993 -0.00215958 18.4971 3.61894e-06ZM5.3756 38.9595C4.27136 38.1625 3.37177 37.1151 2.75058 35.9031C2.12939 34.6912 1.80429 33.3494 1.80194 31.9875V17.052C3.06897 17.1811 4.29052 17.5945 5.3756 18.2613V38.9595ZM9.46323 31.2801V40.5317C8.34689 40.4077 7.26602 40.0645 6.28262 39.5218V18.9083C6.54518 19.1154 6.79553 19.3375 7.03242 19.5735C7.83263 20.3866 8.46166 21.3519 8.8823 22.4123C9.30294 23.4727 9.50665 24.6067 9.48137 25.7472L9.46323 31.2801ZM11.2773 32.2052H17.7473C19.9491 32.2065 22.1004 31.5465 23.9228 30.311C25.7451 29.0754 27.1544 27.3211 27.9682 25.2752C28.7819 23.2294 28.9627 20.9864 28.4869 18.8367C28.0111 16.687 26.9008 14.7297 25.2998 13.2183C28.1199 14.2232 30.6078 15.9871 32.4894 18.3157L32.6829 18.5697C32.8474 19.4389 32.9304 20.3215 32.9308 21.2061C32.926 24.929 31.4454 28.4981 28.8135 31.1312C26.1816 33.7642 22.6131 35.2464 18.8902 35.2528H11.2652L11.2773 32.2052ZM35.2951 30.9052C33.5911 33.848 31.1432 36.291 28.197 37.9891C25.2508 39.6872 21.9098 40.5807 18.5092 40.58H11.2531V36.1538H18.8902C22.852 36.1474 26.6497 34.5703 29.4506 31.7683C32.2515 28.9662 33.827 25.168 33.8318 21.2061C33.8318 20.8917 33.8318 20.6014 33.8318 20.2689C35.6316 23.5071 36.1496 27.3032 35.283 30.9052H35.2951ZM37.1092 23.9513C36.5737 21.4796 35.4726 19.1656 33.8923 17.191C30.3791 12.7829 24.8039 10.2796 18.5274 10.2372C18.2734 10.2372 18.0134 10.207 17.7473 10.207H11.0959C9.63235 10.2067 8.18963 9.86035 6.88549 9.1962C5.58135 8.53204 4.45274 7.56891 3.59179 6.38542H20.5228C24.931 6.38862 29.1578 8.14076 32.2754 11.2572C35.393 14.3737 37.1467 18.5999 37.1515 23.008C37.1515 23.3225 37.1394 23.6369 37.1213 23.9513H37.1092ZM20.5289 5.48444H3.0234C2.37826 4.35724 1.9785 3.10647 1.85032 1.81404H18.4971C23.5266 1.81892 28.3578 3.77584 31.9729 7.27251C35.5881 10.7692 37.7048 15.5326 37.8771 20.5591C37.2846 16.3789 35.2038 12.5528 32.0168 9.78353C28.8299 7.01427 24.7509 5.48779 20.5289 5.48444Z" fill="white"/>
<path d="M18.4971 3.61894e-06H0V0.900976C0.00160026 3.84705 1.17222 6.6721 3.25485 8.75586C5.33747 10.8396 8.16188 12.0118 11.108 12.015H17.7594C20.1971 12.015 22.5349 12.9833 24.2585 14.707C25.9822 16.4307 26.9506 18.7685 26.9506 21.2061C26.9506 23.6437 25.9822 25.9815 24.2585 27.7052C22.5349 29.4289 20.1971 30.3972 17.7594 30.3972H11.2652V26.5273V25.7835C11.2942 24.4033 11.0471 23.0311 10.5385 21.7476C10.0299 20.4641 9.26998 19.2952 8.30339 18.3095C7.3368 17.3237 6.183 16.541 4.90975 16.0073C3.6365 15.4737 2.26945 15.1997 0.888878 15.2016H0V31.9875C0.00306755 34.7368 1.09077 37.3737 3.02682 39.3256C4.96288 41.2776 7.59091 42.3867 10.34 42.4122H18.4971C22.2116 42.4095 25.8603 41.4312 29.0778 39.5751C32.2954 37.7191 34.969 35.0505 36.831 31.8364C36.8907 31.7631 36.9396 31.6817 36.9761 31.5945C38.7929 28.3687 39.733 24.7233 39.7028 21.0212C39.6726 17.3192 38.6732 13.6896 36.8041 10.4939C34.935 7.29812 32.2614 4.64775 29.0494 2.80663C25.8375 0.965496 22.1993 -0.00215958 18.4971 3.61894e-06ZM5.3756 38.9595C4.27136 38.1625 3.37177 37.1151 2.75058 35.9031C2.12939 34.6912 1.80429 33.3494 1.80194 31.9875V17.052C3.06897 17.1811 4.29052 17.5945 5.3756 18.2613V38.9595ZM9.46323 31.2801V40.5317C8.34689 40.4077 7.26602 40.0645 6.28262 39.5218V18.9083C6.54518 19.1154 6.79553 19.3375 7.03242 19.5735C7.83263 20.3866 8.46166 21.3519 8.8823 22.4123C9.30294 23.4727 9.50665 24.6067 9.48137 25.7472L9.46323 31.2801ZM11.2773 32.2052H17.7473C19.9491 32.2065 22.1004 31.5465 23.9228 30.311C25.7451 29.0754 27.1544 27.3211 27.9682 25.2752C28.7819 23.2294 28.9627 20.9864 28.4869 18.8367C28.0111 16.687 26.9008 14.7297 25.2998 13.2183C28.1199 14.2232 30.6078 15.9871 32.4894 18.3157L32.6829 18.5697C32.8474 19.4389 32.9304 20.3215 32.9308 21.2061C32.926 24.929 31.4454 28.4981 28.8135 31.1312C26.1816 33.7642 22.6131 35.2464 18.8902 35.2528H11.2652L11.2773 32.2052ZM35.2951 30.9052C33.5911 33.848 31.1432 36.291 28.197 37.9891C25.2508 39.6872 21.9098 40.5807 18.5092 40.58H11.2531V36.1538H18.8902C22.852 36.1474 26.6497 34.5703 29.4506 31.7683C32.2515 28.9662 33.827 25.168 33.8318 21.2061C33.8318 20.8917 33.8318 20.6014 33.8318 20.2689C35.6316 23.5071 36.1496 27.3032 35.283 30.9052H35.2951ZM37.1092 23.9513C36.5737 21.4796 35.4726 19.1656 33.8923 17.191C30.3791 12.7829 24.8039 10.2796 18.5274 10.2372C18.2734 10.2372 18.0134 10.207 17.7473 10.207H11.0959C9.63235 10.2067 8.18963 9.86035 6.88549 9.1962C5.58135 8.53204 4.45274 7.56891 3.59179 6.38542H20.5228C24.931 6.38862 29.1578 8.14076 32.2754 11.2572C35.393 14.3737 37.1467 18.5999 37.1515 23.008C37.1515 23.3225 37.1394 23.6369 37.1213 23.9513H37.1092ZM20.5289 5.48444H3.0234C2.37826 4.35724 1.9785 3.10647 1.85032 1.81404H18.4971C23.5266 1.81892 28.3578 3.77584 31.9729 7.27251C35.5881 10.7692 37.7048 15.5326 37.8771 20.5591C37.2846 16.3789 35.2038 12.5528 32.0168 9.78353C28.8299 7.01427 24.7509 5.48779 20.5289 5.48444Z" fill="white"/>
<path d="M159.961 29.3704C156.965 29.3704 155.045 28.174 154.462 26.5855C154.361 26.3241 154.301 26.0426 154.301 25.7712C154.301 24.9669 154.854 24.434 155.638 24.434C156.261 24.434 156.673 24.6753 157.035 25.3188C157.508 26.4247 158.644 26.9273 160.031 26.9273C161.66 26.9273 162.766 26.1431 162.766 25.0775C162.766 24.1224 162.082 23.5795 160.263 23.2075L158.724 22.9059C155.829 22.3328 154.411 20.9454 154.411 18.7839C154.411 16.1297 156.724 14.3704 159.951 14.3704C162.605 14.3704 164.606 15.4863 165.249 17.3764C165.32 17.5775 165.36 17.7886 165.36 18.05C165.36 18.7738 164.837 19.2665 164.063 19.2665C163.379 19.2665 162.957 18.995 162.615 18.3717C162.133 17.2759 161.198 16.8234 159.951 16.8234C158.453 16.8234 157.458 17.5272 157.458 18.5929C157.458 19.4877 158.151 20.0406 159.87 20.3824L161.399 20.6941C164.475 21.3074 165.802 22.544 165.802 24.7457C165.802 27.5808 163.58 29.3704 159.961 29.3704Z" fill="white"/>
<path d="M143.443 29.3201C142.488 29.3201 141.925 28.737 141.925 27.7417V16.2001C141.925 15.2048 142.488 14.6217 143.443 14.6217H147.826C150.802 14.6217 152.853 16.6023 152.853 19.5882C152.853 22.5641 150.732 24.5547 147.675 24.5547H144.961V27.7417C144.961 28.737 144.398 29.3201 143.443 29.3201ZM144.961 22.182H147.012C148.751 22.182 149.767 21.2571 149.767 19.5982C149.767 17.9494 148.761 17.0245 147.022 17.0245H144.961V22.182Z" fill="white"/>
<path d="M130.715 29.3201C129.76 29.3201 129.197 28.737 129.197 27.7417V16.2001C129.197 15.2048 129.76 14.6217 130.715 14.6217H135.098C138.074 14.6217 140.125 16.6023 140.125 19.5882C140.125 22.5641 138.004 24.5547 134.948 24.5547H132.233V27.7417C132.233 28.737 131.67 29.3201 130.715 29.3201ZM132.233 22.182H134.284C136.023 22.182 137.039 21.2571 137.039 19.5982C137.039 17.9494 136.033 17.0245 134.294 17.0245H132.233V22.182Z" fill="white"/>
<path d="M115.946 29.3201C115.001 29.3201 114.408 28.7671 114.408 27.8925C114.408 27.6411 114.478 27.2993 114.609 26.9273L118.57 16.1398C118.992 14.9635 119.706 14.4206 120.852 14.4206C122.039 14.4206 122.742 14.9434 123.175 16.1297L127.156 26.9273C127.297 27.3194 127.347 27.5909 127.347 27.8925C127.347 28.7269 126.714 29.3201 125.829 29.3201C124.974 29.3201 124.522 28.928 124.25 27.983L123.486 25.6907H118.248L117.484 27.9528C117.203 28.9179 116.75 29.3201 115.946 29.3201ZM118.912 23.3382H122.783L120.862 17.3965H120.792L118.912 23.3382Z" fill="white"/>
<path d="M108.939 29.3201C107.984 29.3201 107.421 28.737 107.421 27.7417V23.7102L102.997 16.8737C102.776 16.5319 102.685 16.1901 102.685 15.8482C102.685 15.0238 103.329 14.4206 104.204 14.4206C104.857 14.4206 105.209 14.6619 105.611 15.3556L108.929 20.8147H108.999L112.327 15.3556C112.709 14.6921 113.101 14.4206 113.704 14.4206C114.559 14.4206 115.202 15.0238 115.202 15.8281C115.202 16.18 115.102 16.5118 114.881 16.8637L110.457 23.7102V27.7417C110.457 28.737 109.894 29.3201 108.939 29.3201Z" fill="white"/>
<path d="M93.5165 29.3201C92.5615 29.3201 91.9985 28.737 91.9985 27.7417V16.2001C91.9985 15.2048 92.5615 14.6217 93.5165 14.6217H100.303C101.137 14.6217 101.68 15.0942 101.68 15.8784C101.68 16.6626 101.127 17.1351 100.303 17.1351H95.0346V21.0158H99.8101C100.594 21.0158 101.107 21.4682 101.107 22.2122C101.107 22.9662 100.604 23.4186 99.8101 23.4186H95.0346V27.7417C95.0346 28.737 94.4716 29.3201 93.5165 29.3201Z" fill="white"/>
<path d="M88.0675 29.3201C87.1124 29.3201 86.5494 28.737 86.5494 27.7417V16.0091C86.5494 15.0037 87.1124 14.4206 88.0675 14.4206C89.0226 14.4206 89.5856 15.0037 89.5856 16.0091V27.7417C89.5856 28.737 89.0226 29.3201 88.0675 29.3201Z" fill="white"/>
<path d="M78.1044 29.3704C73.7713 29.3704 71.1171 26.5453 71.1171 21.8301C71.1171 17.1854 73.7713 14.3704 78.034 14.3704C80.8188 14.3704 83.0005 15.6773 83.8148 17.4568C83.9857 17.8087 84.036 18.1003 84.036 18.3918C84.036 19.1659 83.5032 19.6988 82.7089 19.6988C82.0655 19.6988 81.6131 19.4273 81.2411 18.8141C80.5273 17.5171 79.4717 16.8838 78.044 16.8838C75.6513 16.8838 74.2136 18.7035 74.2136 21.7899C74.2136 24.9367 75.7418 26.857 78.1546 26.857C80.1352 26.857 81.5125 25.6405 81.5729 23.8409L81.5829 23.6096H79.4717C78.7478 23.6096 78.2552 23.1974 78.2552 22.5037C78.2552 21.81 78.7377 21.3978 79.4717 21.3978H83.0206C83.9757 21.3978 84.5387 21.981 84.5387 22.9763V23.1974C84.5387 26.8871 82.1962 29.3704 78.1044 29.3704Z" fill="white"/>
<path d="M67.6385 29.3201C66.6834 29.3201 66.1204 28.737 66.1204 27.7417V16.0091C66.1204 15.0037 66.6834 14.4206 67.6385 14.4206C68.5936 14.4206 69.1566 15.0037 69.1566 16.0091V27.7417C69.1566 28.737 68.5936 29.3201 67.6385 29.3201Z" fill="white"/>
<path d="M53.2217 29.1291C52.2666 29.1291 51.7036 28.546 51.7036 27.5406V16.2001C51.7036 15.2048 52.2666 14.6217 53.2217 14.6217H57.2431C61.5963 14.6217 64.16 17.2155 64.16 21.8201C64.16 26.4246 61.5963 29.1291 57.2431 29.1291H53.2217ZM54.7398 26.6157H56.8812C59.5957 26.6157 61.0635 24.9669 61.0635 21.8301C61.0635 18.794 59.5554 17.1251 56.8812 17.1251H54.7398V26.6157Z" fill="white"/>
</svg>
