<svg width="54" height="54" viewBox="0 0 54 54" fill="none" xmlns="http://www.w3.org/2000/svg">
<path d="M13.5019 5.30356C13.5019 5.0386 13.4291 4.77874 13.2914 4.55234C13.1538 4.32593 12.9566 4.14169 12.7214 4.0197C12.4862 3.89772 12.222 3.84269 11.9576 3.86061C11.6933 3.87854 11.4389 3.96873 11.2223 4.12135C8.05369 6.3527 6.17526 8.30056 5.11069 10.1828C4.02105 12.1114 3.85905 13.8413 3.85905 15.4286C3.85905 17.6078 4.89083 19.5441 6.49154 20.7784C5.80287 21.4249 5.25754 22.2087 4.89083 23.0792C4.01719 25.0753 3.85712 27.5207 3.85712 29.4821C3.85712 32.6893 4.36819 37.6013 5.30355 41.7304C5.77026 43.7882 6.3604 45.738 7.08747 47.2076C7.45005 47.9385 7.88397 48.627 8.41433 49.1516C8.94854 49.6819 9.68719 50.1428 10.6129 50.1428C11.5386 50.1428 12.2753 49.6819 12.8115 49.1516C13.3399 48.627 13.7738 47.9366 14.1345 47.2056C14.8615 45.738 15.4498 43.7882 15.9145 41.7285C16.848 37.6013 17.3571 32.6893 17.3571 29.4821C17.3571 27.5207 17.2009 25.0772 16.3292 23.0792C15.9627 22.208 15.4174 21.4235 14.7285 20.7765C15.547 20.1459 16.2099 19.3358 16.666 18.4086C17.122 17.4814 17.3592 16.4619 17.359 15.4286C17.359 13.257 16.2945 11.7508 15.4401 10.5416L15.174 10.1616C14.2791 8.86949 13.5019 7.55999 13.5019 5.30356ZM10.5589 22.1786H10.663C11.529 22.1882 12.1191 22.4138 12.5511 22.7263C13.005 23.0516 13.3804 23.5556 13.6774 24.2383C14.2945 25.6519 14.4643 27.5824 14.4643 29.484C14.4643 32.4675 13.9821 37.1636 13.095 41.094C12.6475 43.065 12.1191 44.7583 11.5425 45.9231C11.2532 46.5094 10.987 46.8874 10.773 47.0976C10.7247 47.1483 10.671 47.1936 10.6129 47.2326C10.5541 47.1937 10.4998 47.1484 10.4509 47.0976C10.2368 46.8855 9.97069 46.5094 9.67947 45.9212C9.1009 44.7563 8.57247 43.0631 8.12504 41.0921C7.23597 37.1636 6.74997 32.4675 6.74997 29.4821C6.74997 27.5843 6.92162 25.6538 7.54069 24.2402C7.83897 23.5588 8.21569 23.0548 8.67083 22.7282C9.10283 22.4138 9.6949 22.1882 10.5589 22.1786ZM10.6611 19.2857H10.5608C9.54589 19.2735 8.57667 18.8618 7.86329 18.1397C7.14992 17.4177 6.7499 16.4436 6.74997 15.4286C6.74997 14.0863 6.88304 12.9233 7.62747 11.6081C8.20605 10.5821 9.19733 9.39406 10.9253 7.97077C11.34 9.60235 12.094 10.7961 12.7922 11.8086L13.0236 12.1384C13.932 13.446 14.4643 14.2136 14.4643 15.4286C14.4644 16.4426 14.0651 17.4159 13.353 18.1377C12.6409 18.8596 11.675 19.272 10.6611 19.2857ZM24.1071 8.67856C21.7735 8.67856 19.602 9.36899 17.7833 10.557C17.5095 10.1173 17.2375 9.73927 17.01 9.41913L16.7593 9.06427C16.5511 8.76947 16.3549 8.46644 16.171 8.15592C18.2841 6.76938 20.7235 5.96069 23.2463 5.8104C25.7692 5.66012 28.2874 6.17349 30.5501 7.29936C32.8127 8.42524 34.7409 10.1243 36.1425 12.2274C37.5442 14.3304 38.3703 16.764 38.5386 19.2857H42.9107C44.8284 19.2857 46.6677 20.0474 48.0239 21.4033C49.3801 22.7591 50.1423 24.5982 50.1428 26.5159V39.0516C50.1431 40.0015 49.9562 40.9422 49.5929 41.8198C49.2295 42.6975 48.6969 43.495 48.0253 44.1668C47.3537 44.8385 46.5563 45.3714 45.6788 45.735C44.8012 46.0986 43.8606 46.2857 42.9107 46.2857H30.375C28.4569 46.2857 26.6174 45.5238 25.2611 44.1675C23.9048 42.8112 23.1428 40.9716 23.1428 39.0536V34.6834C21.7509 34.5913 20.3796 34.2984 19.0716 33.8136C19.168 32.7336 19.2317 31.7038 19.2645 30.7626C20.4602 31.3142 21.7678 31.6691 23.1428 31.7828V26.5178C23.1428 24.5998 23.9048 22.7602 25.2611 21.4039C26.6174 20.0477 28.4569 19.2857 30.375 19.2857H35.64C35.3981 16.3935 34.0782 13.6978 31.9421 11.7331C29.8059 9.76837 27.0094 8.67814 24.1071 8.67856ZM38.4441 22.1786C38.0205 25.3204 36.5769 28.2363 34.3351 30.478C32.0934 32.7198 29.1776 34.1634 26.0357 34.587V39.0536C26.0357 40.2044 26.4929 41.3081 27.3066 42.1219C28.1204 42.9357 29.2241 43.3928 30.375 43.3928H42.9107C44.0615 43.3928 45.1652 42.9357 45.979 42.1219C46.7928 41.3081 47.25 40.2044 47.25 39.0536V26.5178C47.25 25.367 46.7928 24.2633 45.979 23.4495C45.1652 22.6357 44.0615 22.1786 42.9107 22.1786H38.4441ZM35.5185 22.1786H30.375C29.2241 22.1786 28.1204 22.6357 27.3066 23.4495C26.4929 24.2633 26.0357 25.367 26.0357 26.5178V31.6613C28.4047 31.2598 30.5902 30.1313 32.2893 28.4322C33.9884 26.7331 35.1169 24.5476 35.5185 22.1786Z" fill="#E109DA"/>
</svg>
