<svg width="40" height="40" viewBox="0 0 40 40" fill="none" xmlns="http://www.w3.org/2000/svg">
<g clip-path="url(#clip0_6_553)">
<path d="M39.8851 32.8112L32.5702 19.2837C33.3165 17.59 33.734 15.7181 33.734 13.7487C33.734 6.15872 27.5808 0.00622559 19.9915 0.00622559C12.4002 0.00622559 6.24772 6.15935 6.24772 13.7487C6.24772 15.7656 6.68585 17.6794 7.46585 19.4044L0.118345 32.805C-0.118569 33.2356 -0.0791939 33.7668 0.217056 34.16C0.513931 34.5519 1.01518 34.7362 1.49389 34.6238L7.76827 33.1844L9.91577 39.1656C10.0833 39.6306 10.5076 39.9531 10.9995 39.9894C11.0314 39.9919 11.062 39.9931 11.092 39.9931C11.318 39.9931 11.5398 39.9317 11.7337 39.8156C11.9277 39.6995 12.0865 39.533 12.1933 39.3338L18.5876 27.4207C19.0539 27.4679 19.5222 27.4915 19.9908 27.4913C20.4251 27.4913 20.8539 27.4688 21.2776 27.4288L27.8107 39.3432C27.9263 39.5544 28.1005 39.7277 28.3123 39.8422C28.5241 39.9568 28.7644 40.0076 29.0045 39.9888C29.4951 39.9494 29.9176 39.6275 30.0838 39.165L32.2313 33.1838L38.5057 34.6231C38.9869 34.7394 39.4832 34.5525 39.7801 34.1618C40.0782 33.7719 40.1182 33.2431 39.8851 32.8112H39.8851ZM11.3194 35.6775L9.74686 31.2962C9.53186 30.7006 8.90815 30.3537 8.29061 30.5006L3.64999 31.5649L8.93944 21.9174C10.6813 24.2706 13.1563 26.0456 16.0269 26.9094L11.3194 35.6775ZM8.75877 13.7487C8.75877 7.55556 13.7982 2.51681 19.9919 2.51681C26.185 2.51681 31.2238 7.55556 31.2238 13.7487C31.2238 19.9418 26.185 24.9818 19.9919 24.9818C13.7975 24.9818 8.75877 19.9418 8.75877 13.7487ZM31.7088 30.5005C31.0888 30.3543 30.4675 30.7005 30.2525 31.2961L28.6694 35.7092L23.8587 26.9374C26.8056 26.0742 29.3407 24.2524 31.105 21.8305L36.3725 31.5699L31.7088 30.5005Z" fill="#AD47FF"/>
</g>
<defs>
<clipPath id="clip0_6_553">
<rect width="40" height="40" fill="white"/>
</clipPath>
</defs>
</svg>
